<svg xmlns="http://www.w3.org/2000/svg" viewBox="0 0 20 24" aria-hidden="true"><path fill="currentColor" d="M13.17 2.11c.86-1.03 1.44-2.46 1.28-3.86-1.24.05-2.73.83-3.59 1.86-.79.92-1.48 2.41-1.3 3.8 1.37.11 2.77-.7 3.61-1.8ZM18.9 8.46c-1.99-1.57-4.81-1.42-6.9.4-1.6 1.38-2.31 1.38-3.86 0C6 7.31 3.39 7.02 1.6 8.6c-2.42 2.1-2.89 6.2-.61 9.5 1.09 1.53 2.56 3.24 4.4 3.29 1.72.04 2.22-1.05 4.1-1.05 1.89 0 2.31 1.05 4.12 1.03 1.86-.03 3.23-1.62 4.33-3.15.76-1.06 1.07-1.6 1.67-2.8-4.36-1.66-3.7-6.63-.71-6.56Z"/></svg>